HIERARCHY
ROOT Hips
{
	OFFSET -0.001795 -0.223333 0.028219
	CHANNELS 6 Xposition Yposition Zposition Zrotation Yrotation Xrotation 
	JOINT LeftUpLeg
	{
		OFFSET 0.069520 -0.091406 -0.006815
		CHANNELS 3 Zrotation Yrotation Xrotation
		JOINT LeftLeg
		{
			OFFSET 0.034277 -0.375199 -0.004496
			CHANNELS 3 Zrotation Yrotation Xrotation
			JOINT LeftFoot
			{
				OFFSET -0.013596 -0.397961 -0.043693
				CHANNELS 3 Zrotation Yrotation Xrotation
				JOINT LeftToe
				{
					OFFSET 0.026358 -0.055791 0.119288
					CHANNELS 3 Zrotation Yrotation Xrotation
					End Site
					{
						OFFSET 0.000000 0.000000 0.000000
					}
				}
			}
		}
	}
	JOINT RightUpLeg
	{
		OFFSET -0.067670 -0.090522 -0.004320
		CHANNELS 3 Zrotation Yrotation Xrotation
		JOINT RightLeg
		{
			OFFSET -0.038290 -0.382569 -0.008850
			CHANNELS 3 Zrotation Yrotation Xrotation
			JOINT RightFoot
			{
				OFFSET 0.015774 -0.398415 -0.042312
				CHANNELS 3 Zrotation Yrotation Xrotation
				JOINT RightToe
				{
					OFFSET -0.025372 -0.048144 0.123348
					CHANNELS 3 Zrotation Yrotation Xrotation
					End Site
					{
						OFFSET 0.000000 0.000000 0.000000
					}
				}
			}
		}
	}
	JOINT Spine
	{
		OFFSET -0.002533 0.108963 -0.026696
		CHANNELS 3 Zrotation Yrotation Xrotation
		JOINT Spine1
		{
			OFFSET 0.005487 0.135180 0.001092
			CHANNELS 3 Zrotation Yrotation Xrotation
			JOINT Spine2
			{
				OFFSET 0.001457 0.052922 0.025425
				CHANNELS 3 Zrotation Yrotation Xrotation
				JOINT Neck
				{
					OFFSET -0.002778 0.213870 -0.042857
					CHANNELS 3 Zrotation Yrotation Xrotation
					JOINT Head
					{
						OFFSET 0.005152 0.064970 0.051349
						CHANNELS 3 Zrotation Yrotation Xrotation
						End Site
						{
							OFFSET 0.000000 0.000000 0.000000
						}
					}
				}
				JOINT LeftShoulder
				{
					OFFSET 0.078845 0.121749 -0.034090
					CHANNELS 3 Zrotation Yrotation Xrotation
					JOINT LeftArm
					{
						OFFSET 0.090977 0.030469 -0.008868
						CHANNELS 3 Zrotation Yrotation Xrotation
						JOINT LeftForeArm
						{
							OFFSET 0.259612 -0.012772 -0.027456
							CHANNELS 3 Zrotation Yrotation Xrotation
							JOINT LeftHand
							{
								OFFSET 0.249234 0.008986 -0.001171
								CHANNELS 3 Zrotation Yrotation Xrotation
								End Site
								{
									OFFSET 0.000000 0.000000 0.000000
								}
							}
						}
					}
				}
				JOINT RightShoulder
				{
					OFFSET -0.081759 0.118833 -0.038615
					CHANNELS 3 Zrotation Yrotation Xrotation
					JOINT RightArm
					{
						OFFSET -0.096012 0.032551 -0.009143
						CHANNELS 3 Zrotation Yrotation Xrotation
						JOINT RightForeArm
						{
							OFFSET -0.253742 -0.013329 -0.021401
							CHANNELS 3 Zrotation Yrotation Xrotation
							JOINT RightHand
							{
								OFFSET -0.255298 0.007772 -0.005559
								CHANNELS 3 Zrotation Yrotation Xrotation
								End Site
								{
									OFFSET 0.000000 0.000000 0.000000
								}
							}
						}
					}
				}
			}
		}
	}
}
MOTION
Frames: 16
Frame Time: 0.050000
-0.022707 0.878938 0.120592 -1.986253 -4.952085 3.471467 6.772842 -0.582999 -23.460923 -6.595411 3.291567 47.050597 5.461389 9.419736 -9.890399 0.000000 0.000000 0.000000 0.628654 3.367051 -28.628706 6.652928 -0.467275 51.183437 -6.798913 -15.973483 -6.842778 0.000000 0.000000 0.000000 3.520131 -0.817366 11.094283 0.003223 0.186342 -11.349821 -1.031099 4.658810 7.900102 4.457160 -0.120951 -27.118164 0.000000 0.000000 0.000000 -0.337557 8.176198 -2.841547 -54.620852 -4.428290 -4.945977 5.108782 -18.951535 -0.147453 0.000000 0.000000 0.000000 -0.691071 -11.000109 -3.732443 56.643622 3.749185 -3.700144 -11.663497 28.974348 -1.480901 0.000000 0.000000 0.000000 
-0.021485 0.902308 0.124085 -1.682053 -2.615999 3.071724 5.884131 -0.828721 -21.157099 -6.459123 2.265745 40.611254 5.883441 11.742673 -3.234342 0.000000 0.000000 0.000000 -0.146264 2.649175 -25.208798 4.985532 -0.171411 46.327665 -6.098134 -15.027801 -1.234687 0.000000 0.000000 0.000000 3.351840 -0.654092 8.592019 -0.059355 0.203126 -8.748999 -1.028106 0.899109 7.604688 2.151548 0.522376 -24.988463 0.000000 0.000000 0.000000 2.726177 7.005178 -2.012187 -49.495818 -6.939200 -3.234296 11.490508 -17.164758 -0.952187 0.000000 0.000000 0.000000 -2.194769 -9.239176 -2.797206 51.318817 7.187629 -2.197193 -21.336358 27.041963 -3.734745 0.000000 0.000000 0.000000 
-0.021074 0.969116 0.129881 -0.818614 -2.395027 5.650454 5.266641 -0.880715 -18.552536 -5.665707 1.404556 28.964003 -0.155287 4.215091 12.312707 0.000000 0.000000 0.000000 -2.093838 1.987490 -22.105326 4.346875 -0.101683 34.707108 -1.504668 -8.228140 12.281079 0.000000 0.000000 0.000000 2.096112 -0.238749 3.021090 1.074787 -0.196730 -9.538740 -1.393704 1.959397 7.231897 1.131331 0.746244 -18.819673 0.000000 0.000000 0.000000 5.828401 8.044209 -1.775233 -39.514053 -8.700952 -2.144683 13.637717 -19.058569 -1.518998 0.000000 0.000000 0.000000 -7.346886 -12.139982 -2.857884 43.264480 10.118604 -0.786282 -26.842339 27.527807 -4.907556 0.000000 0.000000 0.000000 
-0.021251 1.031008 0.133384 -1.485547 -3.689999 7.575947 7.125984 -0.545595 -15.833525 -4.818125 0.897346 18.098282 -4.997688 0.486353 23.740238 0.000000 0.000000 0.000000 -4.603580 1.621212 -21.251588 3.825771 0.048468 26.195024 4.171978 -2.175161 22.951500 0.000000 0.000000 0.000000 3.384776 -0.033949 -1.157971 0.660538 -0.059783 -9.788274 -1.739821 1.924714 7.439474 0.326216 0.814903 -14.212672 0.000000 0.000000 0.000000 11.828995 9.620344 -1.293235 -30.764022 -10.650543 -1.311285 23.793931 -22.051605 -3.657273 0.000000 0.000000 0.000000 -12.930533 -10.722462 -1.411441 32.042964 14.088250 0.136594 -36.112136 25.924739 -6.746377 0.000000 0.000000 0.000000 
-0.022178 1.058374 0.134681 -1.583734 -2.860269 7.666517 11.181942 -0.135736 -13.303685 -5.430501 0.882231 12.766951 -1.569211 5.951017 26.733152 0.000000 0.000000 0.000000 -7.200771 1.132105 -19.001893 2.012936 0.435613 22.201834 2.561864 -5.084668 24.643529 0.000000 0.000000 0.000000 2.999889 0.088368 -2.818851 0.984570 -0.160333 -9.879183 -2.029033 3.793414 4.869734 2.553133 -0.921515 -8.836678 0.000000 0.000000 0.000000 17.812890 6.664518 0.798687 -18.983183 -16.132462 -0.327405 30.922356 -18.349996 -4.605320 0.000000 0.000000 0.000000 -19.254033 -9.991116 -0.592836 19.895555 15.372821 0.088022 -37.444817 21.898117 -5.321412 0.000000 0.000000 0.000000 
-0.023396 1.050092 0.133591 -0.998990 -3.548519 6.609829 12.906688 0.078817 -12.814462 -4.659545 0.807157 16.370813 -2.070366 4.008515 22.268748 0.000000 0.000000 0.000000 -9.338919 0.780071 -14.829087 0.397505 0.874075 20.665649 2.768872 -4.188491 22.462156 0.000000 0.000000 0.000000 1.507309 0.102646 -2.688365 1.588127 -0.396194 -9.840949 -1.573378 4.975562 4.657716 2.062271 -1.074458 -4.288521 0.000000 0.000000 0.000000 23.087758 5.747376 1.925438 -10.484186 -17.712426 -0.518355 39.311931 -13.034103 -4.595178 0.000000 0.000000 0.000000 -23.739128 -8.812582 0.064995 9.913101 16.355240 -0.332945 -42.731921 17.405409 -4.443189 0.000000 0.000000 0.000000 
-0.024629 1.011073 0.130014 -0.892549 -1.713316 6.218924 13.320831 0.120357 -15.320322 -2.464739 0.137965 21.258187 -5.353876 -0.599152 21.268098 0.000000 0.000000 0.000000 -9.426652 0.651857 -12.676593 -0.974771 1.211524 21.217920 3.135878 -2.363701 19.902643 0.000000 0.000000 0.000000 1.194302 0.148418 -3.522463 0.505330 0.029066 -9.480579 -0.295848 2.897505 4.132897 1.925543 -1.106954 -3.594711 0.000000 0.000000 0.000000 28.062562 6.727781 2.292411 -3.935914 -20.862740 -0.873374 47.010275 -9.220055 -3.888940 0.000000 0.000000 0.000000 -29.548644 -7.823022 1.296743 5.126793 20.078596 -0.605156 -50.590212 11.387383 -3.156109 0.000000 0.000000 0.000000 
-0.026399 0.943288 0.121770 -1.118244 -0.945581 4.545691 15.095995 0.371988 -15.964419 -2.618307 0.102063 28.604570 -2.090788 -1.373893 6.233761 0.000000 0.000000 0.000000 -9.827029 0.562184 -13.271931 -1.634222 1.861586 29.024928 -0.882493 -3.121724 1.881175 0.000000 0.000000 0.000000 0.588483 -0.012794 -0.034775 1.607558 -0.240472 -12.726539 -1.203957 4.099230 6.490465 4.185906 -2.169022 -7.617026 0.000000 0.000000 0.000000 33.890328 8.851752 3.387398 1.985312 -25.758637 -1.877445 57.054799 0.243795 -0.925889 0.000000 0.000000 0.000000 -32.297885 -9.832614 0.858973 -0.719112 22.734111 -1.191213 -59.657428 7.464976 -1.077111 0.000000 0.000000 0.000000 
-0.027593 0.886889 0.109781 -1.814407 -0.509583 1.053680 15.611607 0.730672 -20.153138 -2.344457 -0.271444 43.118119 1.004544 -0.236443 -5.144658 0.000000 0.000000 0.000000 -8.413182 0.616566 -14.470850 -1.436528 2.453944 39.723900 -4.290249 -6.706206 -12.084330 0.000000 0.000000 0.000000 0.962411 -0.354268 6.939316 1.171438 -0.050125 -13.696490 -0.072858 3.843309 5.260185 6.185149 -2.901609 -11.879855 0.000000 0.000000 0.000000 33.820942 8.617368 3.400276 6.828620 -26.359411 -2.553701 64.611718 7.354333 3.046479 0.000000 0.000000 0.000000 -33.598805 -9.226778 1.183580 -6.138075 23.934599 -1.875096 -64.715915 1.130516 2.376771 0.000000 0.000000 0.000000 
-0.026460 0.875978 0.105909 -1.235658 -0.163262 -1.643462 14.019722 0.494854 -19.076782 -3.076226 -0.051107 45.633212 3.765061 4.977084 -8.549273 0.000000 0.000000 0.000000 -8.059081 0.513927 -12.220878 -1.396077 2.578148 42.104673 -4.252906 -6.355482 -12.537216 0.000000 0.000000 0.000000 0.993198 -0.456425 9.182699 0.157635 0.281697 -12.941715 0.576110 2.383530 7.021073 3.615521 -1.053746 -14.360527 0.000000 0.000000 0.000000 30.836648 9.201689 2.348919 5.815379 -24.949008 -2.141943 68.903949 6.615578 3.363890 0.000000 0.000000 0.000000 -31.601428 -11.859764 0.983152 -6.702474 26.781462 -2.368704 -70.305153 0.559821 2.224479 0.000000 0.000000 0.000000 
-0.023410 0.916226 0.109794 -0.674266 0.527473 -1.261350 13.287216 0.224748 -14.938168 -3.502941 0.147289 36.327327 1.254725 2.334665 -0.780660 0.000000 0.000000 0.000000 -9.166765 0.362598 -10.043594 -0.158422 1.541209 36.211707 -2.163392 -4.178315 -3.224946 0.000000 0.000000 0.000000 0.971347 -0.323963 6.479599 0.525892 0.166283 -12.841019 -0.239475 1.598462 7.505187 1.262035 0.188282 -11.796754 0.000000 0.000000 0.000000 28.740202 8.824603 1.947859 -1.724363 -24.880572 -1.272523 66.760216 -5.447810 -3.930652 0.000000 0.000000 0.000000 -29.749540 -11.405451 0.764061 1.320286 29.225254 -1.329724 -71.605586 10.350998 -4.349778 0.000000 0.000000 0.000000 
-0.019503 0.976909 0.113739 -0.196881 0.219597 1.009476 12.405409 0.003862 -11.207436 -1.827532 -0.248353 23.585246 -4.298105 -0.655131 16.235240 0.000000 0.000000 0.000000 -12.228776 0.235495 -9.907920 3.754297 -0.244344 27.304759 0.647662 -5.077216 16.096440 0.000000 0.000000 0.000000 1.015928 -0.070288 1.175156 0.674827 0.017772 -10.037304 -0.828018 3.075934 4.956776 2.241307 -0.770055 -7.898191 0.000000 0.000000 0.000000 25.600718 6.576070 2.203282 -14.323090 -22.593678 -0.054591 57.672314 -23.344061 -12.898930 0.000000 0.000000 0.000000 -26.570730 -10.868740 0.133922 15.873063 25.252558 0.921605 -65.865387 27.163468 -13.382913 0.000000 0.000000 0.000000 
-0.016450 1.020373 0.112448 -0.486216 -0.552464 2.844516 11.402025 -0.117733 -9.745604 -0.319995 -0.445581 15.911173 -5.203137 0.786494 23.735062 0.000000 0.000000 0.000000 -11.300872 0.378542 -10.785537 2.509142 0.139181 21.529222 3.273726 -4.103136 26.195597 0.000000 0.000000 0.000000 2.958099 0.045708 -1.505627 0.734341 -0.041218 -9.368469 -2.115797 4.101523 5.483380 3.066379 -1.297326 -7.884279 0.000000 0.000000 0.000000 20.901327 5.816475 1.736913 -25.630108 -19.702002 0.343862 43.287242 -35.123164 -13.866086 0.000000 0.000000 0.000000 -20.851907 -10.084735 -0.797129 25.599659 19.642600 1.233698 -53.042369 39.225697 -15.681916 0.000000 0.000000 0.000000 
-0.014373 1.031909 0.105385 -0.100709 -0.726738 3.535603 7.789839 -0.399541 -10.993620 -0.932102 -0.312443 17.141113 -3.899960 0.588090 18.286295 0.000000 0.000000 0.000000 -8.359611 0.633374 -12.690657 2.004217 0.336952 22.870692 2.025039 -4.700039 21.866560 0.000000 0.000000 0.000000 3.375063 0.011531 -1.174010 -0.802564 0.526351 -8.763253 -1.072614 4.430846 5.243519 3.665338 -1.336878 -10.643227 0.000000 0.000000 0.000000 14.248222 2.276542 1.355549 -33.784778 -15.547705 -0.208224 30.833610 -38.179442 -10.156410 0.000000 0.000000 0.000000 -13.992035 -7.249848 -1.083100 32.885595 12.501481 0.067654 -35.881251 41.023087 -10.302227 0.000000 0.000000 0.000000 
-0.012916 1.009767 0.095612 -0.019940 -0.949733 2.549938 6.111894 -0.586572 -13.156904 -3.455351 0.374031 23.871298 -3.152172 0.261019 14.435989 0.000000 0.000000 0.000000 -6.543887 0.727758 -11.989005 3.185233 0.026141 25.022284 0.014341 -6.598592 16.927396 0.000000 0.000000 0.000000 3.177630 -0.189349 1.959008 -0.935702 0.543864 -6.757658 -1.096789 4.800429 3.559167 3.459936 -1.038220 -11.607498 0.000000 0.000000 0.000000 7.818827 1.163119 0.774812 -41.081452 -12.423399 -0.963097 14.586711 -33.881386 -3.710347 0.000000 0.000000 0.000000 -7.199305 -4.790309 -1.100230 41.144816 7.394802 -1.243026 -15.772850 35.600915 -2.858219 0.000000 0.000000 0.000000 
-0.012083 0.958819 0.084136 0.476260 -1.050181 0.815275 5.439520 -0.755064 -16.198141 -4.458877 0.827950 33.053705 0.335983 2.834435 5.235271 0.000000 0.000000 0.000000 -6.939175 0.775197 -14.526758 4.189820 -0.200090 34.564641 -3.149388 -9.756112 6.290640 0.000000 0.000000 0.000000 3.066379 -0.543037 7.620651 -1.117274 0.636938 -8.231010 -1.372165 5.299776 5.199508 3.531330 -0.397232 -16.741710 0.000000 0.000000 0.000000 2.067933 0.149512 0.241362 -47.721385 -9.276423 -2.415525 3.949026 -30.054523 -0.317336 0.000000 0.000000 0.000000 -0.499236 -4.917851 -1.709194 48.251703 5.508042 -2.293047 -4.984284 30.091558 0.265115 0.000000 0.000000 0.000000 
